{
    "asset" : {
        "generator" : "Khronos glTF Blender I/O v1.8.19",
        "version" : "2.0"
    },
    "scene" : 0,
    "scenes" : [
        {
            "name" : "Scene",
            "nodes" : [
                0,
                1
            ]
        }
    ],
    "nodes" : [
        {
            "mesh" : 0,
            "name" : "Pad_Landscape",
            "rotation" : [
                -0.14552675187587738,
                0.2374761700630188,
                0.03600827232003212,
                0.9597554206848145
            ]
        },
        {
            "mesh" : 1,
            "name" : "Pad_Portrait",
            "rotation" : [
                -0.14552675187587738,
                0.2374761700630188,
                0.03600827232003212,
                0.9597554206848145
            ],
            "translation" : [
                6.111715793609619,
                3.017845630645752,
                -0.7178803086280823
            ]
        }
    ],
    "animations" : [
        {
            "channels" : [
                {
                    "sampler" : 0,
                    "target" : {
                        "node" : 0,
                        "path" : "translation"
                    }
                }
            ],
            "name" : "Landscape_Float",
            "samplers" : [
                {
                    "input" : 22,
                    "interpolation" : "LINEAR",
                    "output" : 23
                }
            ]
        },
        {
            "channels" : [
                {
                    "sampler" : 0,
                    "target" : {
                        "node" : 0,
                        "path" : "rotation"
                    }
                }
            ],
            "name" : "Landscape_Rotate",
            "samplers" : [
                {
                    "input" : 22,
                    "interpolation" : "LINEAR",
                    "output" : 24
                }
            ]
        },
        {
            "channels" : [
                {
                    "sampler" : 0,
                    "target" : {
                        "node" : 1,
                        "path" : "translation"
                    }
                }
            ],
            "name" : "Portrait_Float",
            "samplers" : [
                {
                    "input" : 22,
                    "interpolation" : "LINEAR",
                    "output" : 25
                }
            ]
        },
        {
            "channels" : [
                {
                    "sampler" : 0,
                    "target" : {
                        "node" : 1,
                        "path" : "rotation"
                    }
                },
                {
                    "sampler" : 1,
                    "target" : {
                        "node" : 1,
                        "path" : "translation"
                    }
                }
            ],
            "name" : "Portrait_Rotate",
            "samplers" : [
                {
                    "input" : 22,
                    "interpolation" : "LINEAR",
                    "output" : 26
                },
                {
                    "input" : 22,
                    "interpolation" : "LINEAR",
                    "output" : 27
                }
            ]
        }
    ],
    "materials" : [
        {
            "doubleSided" : true,
            "name" : "Front_Image",
            "pbrMetallicRoughness" : {}
        },
        {
            "doubleSided" : true,
            "name" : "Back_Image",
            "pbrMetallicRoughness" : {}
        },
        {
            "doubleSided" : true,
            "name" : "Border",
            "pbrMetallicRoughness" : {
                "baseColorFactor" : [
                    0.800000011920929,
                    0.800000011920929,
                    0.800000011920929,
                    1
                ],
                "metallicFactor" : 0,
                "roughnessFactor" : 0.5
            }
        },
        {
            "doubleSided" : true,
            "name" : "Front_Image_Portrait",
            "pbrMetallicRoughness" : {}
        },
        {
            "doubleSided" : true,
            "name" : "Back_Image_Portrait",
            "pbrMetallicRoughness" : {}
        }
    ],
    "meshes" : [
        {
            "name" : "Pad_Landscape",
            "primitives" : [
                {
                    "attributes" : {
                        "POSITION" : 0,
                        "NORMAL" : 1,
                        "TEXCOORD_0" : 2
                    },
                    "indices" : 3,
                    "material" : 0
                },
                {
                    "attributes" : {
                        "POSITION" : 4,
                        "NORMAL" : 5,
                        "TEXCOORD_0" : 6
                    },
                    "indices" : 7,
                    "material" : 1
                },
                {
                    "attributes" : {
                        "POSITION" : 8,
                        "NORMAL" : 9,
                        "TEXCOORD_0" : 10
                    },
                    "indices" : 11,
                    "material" : 2
                }
            ]
        },
        {
            "name" : "Pad_Portrait",
            "primitives" : [
                {
                    "attributes" : {
                        "POSITION" : 12,
                        "NORMAL" : 13,
                        "TEXCOORD_0" : 14
                    },
                    "indices" : 3,
                    "material" : 3
                },
                {
                    "attributes" : {
                        "POSITION" : 15,
                        "NORMAL" : 16,
                        "TEXCOORD_0" : 17
                    },
                    "indices" : 7,
                    "material" : 4
                },
                {
                    "attributes" : {
                        "POSITION" : 18,
                        "NORMAL" : 19,
                        "TEXCOORD_0" : 20
                    },
                    "indices" : 21,
                    "material" : 2
                }
            ]
        }
    ],
    "accessors" : [
        {
            "bufferView" : 0,
            "componentType" : 5126,
            "count" : 28,
            "max" : [
                7.905167579650879,
                4.408829689025879,
                0.10000240802764893
            ],
            "min" : [
                -7.905165672302246,
                -4.4088287353515625,
                0.09999716281890869
            ],
            "type" : "VEC3"
        },
        {
            "bufferView" : 1,
            "componentType" : 5126,
            "count" : 28,
            "type" : "VEC3"
        },
        {
            "bufferView" : 2,
            "componentType" : 5126,
            "count" : 28,
            "type" : "VEC2"
        },
        {
            "bufferView" : 3,
            "componentType" : 5123,
            "count" : 78,
            "type" : "SCALAR"
        },
        {
            "bufferView" : 4,
            "componentType" : 5126,
            "count" : 28,
            "max" : [
                7.905167579650879,
                4.408829689025879,
                -0.09999728202819824
            ],
            "min" : [
                -7.905165672302246,
                -4.4088287353515625,
                -0.10000240802764893
            ],
            "type" : "VEC3"
        },
        {
            "bufferView" : 5,
            "componentType" : 5126,
            "count" : 28,
            "type" : "VEC3"
        },
        {
            "bufferView" : 6,
            "componentType" : 5126,
            "count" : 28,
            "type" : "VEC2"
        },
        {
            "bufferView" : 7,
            "componentType" : 5123,
            "count" : 78,
            "type" : "SCALAR"
        },
        {
            "bufferView" : 8,
            "componentType" : 5126,
            "count" : 336,
            "max" : [
                8.000000953674316,
                4.500000476837158,
                0.10000240802764893
            ],
            "min" : [
                -8,
                -4.5,
                -0.10000240802764893
            ],
            "type" : "VEC3"
        },
        {
            "bufferView" : 9,
            "componentType" : 5126,
            "count" : 336,
            "type" : "VEC3"
        },
        {
            "bufferView" : 10,
            "componentType" : 5126,
            "count" : 336,
            "type" : "VEC2"
        },
        {
            "bufferView" : 11,
            "componentType" : 5123,
            "count" : 504,
            "type" : "SCALAR"
        },
        {
            "bufferView" : 12,
            "componentType" : 5126,
            "count" : 28,
            "max" : [
                2.2044148445129395,
                3.952582836151123,
                0.10000228881835938
            ],
            "min" : [
                -2.2044146060943604,
                -3.9525842666625977,
                0.09999704360961914
            ],
            "type" : "VEC3"
        },
        {
            "bufferView" : 13,
            "componentType" : 5126,
            "count" : 28,
            "type" : "VEC3"
        },
        {
            "bufferView" : 14,
            "componentType" : 5126,
            "count" : 28,
            "type" : "VEC2"
        },
        {
            "bufferView" : 15,
            "componentType" : 5126,
            "count" : 28,
            "max" : [
                2.2044148445129395,
                3.952582836151123,
                -0.09999728202819824
            ],
            "min" : [
                -2.2044146060943604,
                -3.9525842666625977,
                -0.10000228881835938
            ],
            "type" : "VEC3"
        },
        {
            "bufferView" : 16,
            "componentType" : 5126,
            "count" : 28,
            "type" : "VEC3"
        },
        {
            "bufferView" : 17,
            "componentType" : 5126,
            "count" : 28,
            "type" : "VEC2"
        },
        {
            "bufferView" : 18,
            "componentType" : 5126,
            "count" : 310,
            "max" : [
                2.250000476837158,
                4,
                0.10000228881835938
            ],
            "min" : [
                -2.250000238418579,
                -4.000000953674316,
                -0.10000228881835938
            ],
            "type" : "VEC3"
        },
        {
            "bufferView" : 19,
            "componentType" : 5126,
            "count" : 310,
            "type" : "VEC3"
        },
        {
            "bufferView" : 20,
            "componentType" : 5126,
            "count" : 310,
            "type" : "VEC2"
        },
        {
            "bufferView" : 21,
            "componentType" : 5123,
            "count" : 504,
            "type" : "SCALAR"
        },
        {
            "bufferView" : 22,
            "componentType" : 5126,
            "count" : 60,
            "max" : [
                2.5
            ],
            "min" : [
                0.041666666666666664
            ],
            "type" : "SCALAR"
        },
        {
            "bufferView" : 23,
            "componentType" : 5126,
            "count" : 60,
            "type" : "VEC3"
        },
        {
            "bufferView" : 24,
            "componentType" : 5126,
            "count" : 60,
            "type" : "VEC4"
        },
        {
            "bufferView" : 25,
            "componentType" : 5126,
            "count" : 60,
            "type" : "VEC3"
        },
        {
            "bufferView" : 26,
            "componentType" : 5126,
            "count" : 60,
            "type" : "VEC4"
        },
        {
            "bufferView" : 27,
            "componentType" : 5126,
            "count" : 60,
            "type" : "VEC3"
        }
    ],
    "bufferViews" : [
        {
            "buffer" : 0,
            "byteLength" : 336,
            "byteOffset" : 0
        },
        {
            "buffer" : 0,
            "byteLength" : 336,
            "byteOffset" : 336
        },
        {
            "buffer" : 0,
            "byteLength" : 224,
            "byteOffset" : 672
        },
        {
            "buffer" : 0,
            "byteLength" : 156,
            "byteOffset" : 896
        },
        {
            "buffer" : 0,
            "byteLength" : 336,
            "byteOffset" : 1052
        },
        {
            "buffer" : 0,
            "byteLength" : 336,
            "byteOffset" : 1388
        },
        {
            "buffer" : 0,
            "byteLength" : 224,
            "byteOffset" : 1724
        },
        {
            "buffer" : 0,
            "byteLength" : 156,
            "byteOffset" : 1948
        },
        {
            "buffer" : 0,
            "byteLength" : 4032,
            "byteOffset" : 2104
        },
        {
            "buffer" : 0,
            "byteLength" : 4032,
            "byteOffset" : 6136
        },
        {
            "buffer" : 0,
            "byteLength" : 2688,
            "byteOffset" : 10168
        },
        {
            "buffer" : 0,
            "byteLength" : 1008,
            "byteOffset" : 12856
        },
        {
            "buffer" : 0,
            "byteLength" : 336,
            "byteOffset" : 13864
        },
        {
            "buffer" : 0,
            "byteLength" : 336,
            "byteOffset" : 14200
        },
        {
            "buffer" : 0,
            "byteLength" : 224,
            "byteOffset" : 14536
        },
        {
            "buffer" : 0,
            "byteLength" : 336,
            "byteOffset" : 14760
        },
        {
            "buffer" : 0,
            "byteLength" : 336,
            "byteOffset" : 15096
        },
        {
            "buffer" : 0,
            "byteLength" : 224,
            "byteOffset" : 15432
        },
        {
            "buffer" : 0,
            "byteLength" : 3720,
            "byteOffset" : 15656
        },
        {
            "buffer" : 0,
            "byteLength" : 3720,
            "byteOffset" : 19376
        },
        {
            "buffer" : 0,
            "byteLength" : 2480,
            "byteOffset" : 23096
        },
        {
            "buffer" : 0,
            "byteLength" : 1008,
            "byteOffset" : 25576
        },
        {
            "buffer" : 0,
            "byteLength" : 240,
            "byteOffset" : 26584
        },
        {
            "buffer" : 0,
            "byteLength" : 720,
            "byteOffset" : 26824
        },
        {
            "buffer" : 0,
            "byteLength" : 960,
            "byteOffset" : 27544
        },
        {
            "buffer" : 0,
            "byteLength" : 720,
            "byteOffset" : 28504
        },
        {
            "buffer" : 0,
            "byteLength" : 960,
            "byteOffset" : 29224
        },
        {
            "buffer" : 0,
            "byteLength" : 720,
            "byteOffset" : 30184
        }
    ],
    "buffers" : [
        {
            "byteLength" : 30904,
            "uri" : "data:application/octet-stream;base64,"
        }
    ]
}
